HIERARCHY
ROOT Hips
{
	OFFSET 0.000000 97.167313 0.000000
	CHANNELS 6 Xposition Yposition Zposition Xrotation Yrotation Zrotation
	JOINT Spine
	{
		OFFSET 0.000000 13.784798 0.064400
		CHANNELS 3 Xrotation Yrotation Zrotation
		JOINT Spine1
		{
			OFFSET 0.000000 12.037903 0.404700
			CHANNELS 3 Xrotation Yrotation Zrotation
			JOINT Spine2
			{
				OFFSET 0.000000 17.795601 0.420200
				CHANNELS 3 Xrotation Yrotation Zrotation
				JOINT Neck
				{
					OFFSET 0.000000 39.131302 11.954600
					CHANNELS 3 Xrotation Yrotation Zrotation
					JOINT Head
					{
						OFFSET 0.000000 14.456192 15.627699
						CHANNELS 3 Xrotation Yrotation Zrotation
						JOINT HeadTop_End
						{
							OFFSET 0.000000 15.703506 7.603401
							CHANNELS 3 Xrotation Yrotation Zrotation
							End Site
							{
								OFFSET 0.000000 17.447403 0.000000
							}
						}
					}
				}
				JOINT LeftShoulder
				{
					OFFSET 17.399500 24.608795 1.168800
					CHANNELS 3 Xrotation Yrotation Zrotation
					JOINT LeftArm
					{
						OFFSET 18.980635 5.765305 1.818600
						CHANNELS 3 Xrotation Yrotation Zrotation
						JOINT LeftForeArm
						{
							OFFSET 49.290169 0.000000 0.000000
							CHANNELS 3 Xrotation Yrotation Zrotation
							JOINT LeftHand
							{
								OFFSET 31.562012 0.000000 0.000000
								CHANNELS 3 Xrotation Yrotation Zrotation
								JOINT LeftHandThumb1
								{
									OFFSET 6.133995 -4.388519 7.076070
									CHANNELS 3 Xrotation Yrotation Zrotation
									JOINT LeftHandThumb2
									{
										OFFSET 6.037666 -3.485840 3.485847
										CHANNELS 3 Xrotation Yrotation Zrotation
										JOINT LeftHandThumb3
										{
											OFFSET 6.496506 -3.750763 3.750761
											CHANNELS 3 Xrotation Yrotation Zrotation
											JOINT LeftHandThumb4
											{
												OFFSET 5.616882 -3.242905 3.242910
												CHANNELS 3 Xrotation Yrotation Zrotation
												End Site
												{
													OFFSET -1.254608 7.132141 0.375429
												}
											}
										}
									}
								}
								JOINT LeftHandPinky1
								{
									OFFSET 18.920792 -0.453171 -11.426712
									CHANNELS 3 Xrotation Yrotation Zrotation
									JOINT LeftHandPinky2
									{
										OFFSET 4.919586 0.000000 0.000000
										CHANNELS 3 Xrotation Yrotation Zrotation
										JOINT LeftHandPinky3
										{
											OFFSET 5.233047 0.000000 0.000000
											CHANNELS 3 Xrotation Yrotation Zrotation
											JOINT LeftHandPinky4
											{
												OFFSET 5.571716 0.000000 0.000000
												CHANNELS 3 Xrotation Yrotation Zrotation
												End Site
												{
													OFFSET -3.459808 4.342407 -0.466164
												}
											}
										}
									}
								}
								JOINT LeftHandRing1
								{
									OFFSET 22.726120 -0.094986 -6.500475
									CHANNELS 3 Xrotation Yrotation Zrotation
									JOINT LeftHandRing2
									{
										OFFSET 6.408615 0.000000 0.000000
										CHANNELS 3 Xrotation Yrotation Zrotation
										JOINT LeftHandRing3
										{
											OFFSET 6.150223 0.000000 0.000000
											CHANNELS 3 Xrotation Yrotation Zrotation
											JOINT LeftHandRing4
											{
												OFFSET 6.145386 0.000000 0.000000
												CHANNELS 3 Xrotation Yrotation Zrotation
												End Site
												{
													OFFSET -3.671402 4.923981 -0.202372
												}
											}
										}
									}
								}
								JOINT LeftHandMiddle1
								{
									OFFSET 23.373947 0.000000 0.000001
									CHANNELS 3 Xrotation Yrotation Zrotation
									JOINT LeftHandMiddle2
									{
										OFFSET 6.996567 0.000000 0.000000
										CHANNELS 3 Xrotation Yrotation Zrotation
										JOINT LeftHandMiddle3
										{
											OFFSET 7.015945 0.000000 0.000000
											CHANNELS 3 Xrotation Yrotation Zrotation
											JOINT LeftHandMiddle4
											{
												OFFSET 7.721573 0.000000 0.000000
												CHANNELS 3 Xrotation Yrotation Zrotation
												End Site
												{
													OFFSET -4.651108 6.158463 0.251582
												}
											}
										}
									}
								}
								JOINT LeftHandIndex1
								{
									OFFSET 21.310577 -0.490082 6.209344
									CHANNELS 3 Xrotation Yrotation Zrotation
									JOINT LeftHandIndex2
									{
										OFFSET 7.536453 0.000000 0.000000
										CHANNELS 3 Xrotation Yrotation Zrotation
										JOINT LeftHandIndex3
										{
											OFFSET 7.512344 0.000000 0.000000
											CHANNELS 3 Xrotation Yrotation Zrotation
											JOINT LeftHandIndex4
											{
												OFFSET 10.212402 0.000000 0.000001
												CHANNELS 3 Xrotation Yrotation Zrotation
												End Site
												{
													OFFSET -5.180801 8.690506 1.388433
												}
											}
										}
									}
								}
							}
						}
					}
				}
				JOINT RightShoulder
				{
					OFFSET -17.399500 24.608795 1.168800
					CHANNELS 3 Xrotation Yrotation Zrotation
					JOINT RightArm
					{
						OFFSET -18.980635 5.765305 1.818600
						CHANNELS 3 Xrotation Yrotation Zrotation
						JOINT RightForeArm
						{
							OFFSET -49.290169 0.000000 0.000000
							CHANNELS 3 Xrotation Yrotation Zrotation
							JOINT RightHand
							{
								OFFSET -31.562012 0.000000 0.000000
								CHANNELS 3 Xrotation Yrotation Zrotation
								JOINT RightHandThumb1
								{
									OFFSET -6.133995 -4.388519 7.076070
									CHANNELS 3 Xrotation Yrotation Zrotation
									JOINT RightHandThumb2
									{
										OFFSET -6.037666 -3.485840 3.485847
										CHANNELS 3 Xrotation Yrotation Zrotation
										JOINT RightHandThumb3
										{
											OFFSET -6.496506 -3.750763 3.750761
											CHANNELS 3 Xrotation Yrotation Zrotation
											JOINT RightHandThumb4
											{
												OFFSET -5.616882 -3.242905 3.242910
												CHANNELS 3 Xrotation Yrotation Zrotation
												End Site
												{
													OFFSET 1.254608 7.132141 0.375429
												}
											}
										}
									}
								}
								JOINT RightHandIndex1
								{
									OFFSET -21.310577 -0.490082 6.209344
									CHANNELS 3 Xrotation Yrotation Zrotation
									JOINT RightHandIndex2
									{
										OFFSET -7.536453 0.000000 0.000000
										CHANNELS 3 Xrotation Yrotation Zrotation
										JOINT RightHandIndex3
										{
											OFFSET -7.512344 0.000000 0.000000
											CHANNELS 3 Xrotation Yrotation Zrotation
											JOINT RightHandIndex4
											{
												OFFSET -10.212402 0.000000 0.000001
												CHANNELS 3 Xrotation Yrotation Zrotation
												End Site
												{
													OFFSET 5.180801 8.690506 1.388433
												}
											}
										}
									}
								}
								JOINT RightHandMiddle1
								{
									OFFSET -23.373947 0.000000 0.000001
									CHANNELS 3 Xrotation Yrotation Zrotation
									JOINT RightHandMiddle2
									{
										OFFSET -6.996567 0.000000 0.000000
										CHANNELS 3 Xrotation Yrotation Zrotation
										JOINT RightHandMiddle3
										{
											OFFSET -7.015945 0.000000 0.000000
											CHANNELS 3 Xrotation Yrotation Zrotation
											JOINT RightHandMiddle4
											{
												OFFSET -7.721573 0.000000 0.000000
												CHANNELS 3 Xrotation Yrotation Zrotation
												End Site
												{
													OFFSET 4.651108 6.158463 0.251582
												}
											}
										}
									}
								}
								JOINT RightHandRing1
								{
									OFFSET -22.726120 -0.094986 -6.500475
									CHANNELS 3 Xrotation Yrotation Zrotation
									JOINT RightHandRing2
									{
										OFFSET -6.408615 0.000000 0.000000
										CHANNELS 3 Xrotation Yrotation Zrotation
										JOINT RightHandRing3
										{
											OFFSET -6.150223 0.000000 0.000000
											CHANNELS 3 Xrotation Yrotation Zrotation
											JOINT RightHandRing4
											{
												OFFSET -6.145386 0.000000 0.000000
												CHANNELS 3 Xrotation Yrotation Zrotation
												End Site
												{
													OFFSET 3.671402 4.923981 -0.202372
												}
											}
										}
									}
								}
								JOINT RightHandPinky1
								{
									OFFSET -18.920792 -0.453171 -11.426712
									CHANNELS 3 Xrotation Yrotation Zrotation
									JOINT RightHandPinky2
									{
										OFFSET -4.919586 0.000000 0.000000
										CHANNELS 3 Xrotation Yrotation Zrotation
										JOINT RightHandPinky3
										{
											OFFSET -5.233047 0.000000 0.000000
											CHANNELS 3 Xrotation Yrotation Zrotation
											JOINT RightHandPinky4
											{
												OFFSET -5.571716 0.000000 0.000000
												CHANNELS 3 Xrotation Yrotation Zrotation
												End Site
												{
													OFFSET 3.459808 4.342407 -0.466164
												}
											}
										}
									}
								}
							}
						}
					}
				}
			}
		}
	}
	JOINT LeftUpLeg
	{
		OFFSET 19.899099 -7.885101 -3.429500
		CHANNELS 3 Xrotation Yrotation Zrotation
		JOINT LeftLeg
		{
			OFFSET 1.745560 -36.997807 10.304700
			CHANNELS 3 Xrotation Yrotation Zrotation
			JOINT LeftFoot
			{
				OFFSET -1.745558 -29.803308 -13.615400
				CHANNELS 3 Xrotation Yrotation Zrotation
				JOINT LeftToeBase
				{
					OFFSET 1.181900 -18.539904 15.226099
					CHANNELS 3 Xrotation Yrotation Zrotation
					JOINT LeftToe_End
					{
						OFFSET -0.863701 1.402801 16.534700
						CHANNELS 3 Xrotation Yrotation Zrotation
						End Site
						{
							OFFSET 0.000000 16.616566 0.000000
						}
					}
				}
			}
		}
	}
	JOINT RightUpLeg
	{
		OFFSET -19.899099 -7.885101 -3.429500
		CHANNELS 3 Xrotation Yrotation Zrotation
		JOINT RightLeg
		{
			OFFSET -1.745560 -36.997807 10.304700
			CHANNELS 3 Xrotation Yrotation Zrotation
			JOINT RightFoot
			{
				OFFSET 1.745558 -29.803308 -13.615400
				CHANNELS 3 Xrotation Yrotation Zrotation
				JOINT RightToeBase
				{
					OFFSET -1.181900 -18.539904 15.226099
					CHANNELS 3 Xrotation Yrotation Zrotation
					JOINT RightToe_End
					{
						OFFSET 0.863701 1.402801 16.534700
						CHANNELS 3 Xrotation Yrotation Zrotation
						End Site
						{
							OFFSET 0.000000 16.616566 0.000000
						}
					}
				}
			}
		}
	}
}
MOTION
Frames: 4
Frame Time: 0.033333
2.038626 76.563187 151.745941 -15.272954 16.304409 -19.909798 18.717189 -3.042722 16.797334 16.460853 -0.330567 3.887669 25.905089 0.417176 3.890416 -18.501768 -0.130753 1.484990 -21.424753 0.778932 -1.685021 -0.000000 -0.000000 -0.000000 4.093760 -6.499517 -13.112140 -12.354532 -41.632663 -41.974210 0.000010 -32.436282 -0.000002 -37.442585 -17.082935 13.203598 5.392178 -4.609207 5.048536 8.540440 32.108026 2.892670 -5.496669 12.978781 16.451791 0.000001 0.000001 -0.000002 1.010224 18.751827 -18.764582 1.574003 3.996422 -42.980909 0.273507 1.770782 -17.558929 0.000003 0.000001 0.000001 1.713839 11.216070 -10.886563 1.429781 3.836186 -40.869468 0.699060 2.777160 -28.252685 -0.000001 -0.000001 0.000003 -0.006182 1.625241 -4.274657 1.156563 3.496274 -36.598793 0.090409 1.026339 -10.068126 -0.000000 -0.000000 0.000004 3.220033 -10.849309 -0.186675 0.893487 3.111517 -32.036398 0.311387 1.886275 -18.746178 -0.000000 -0.000001 0.000003 4.264599 5.394518 22.629388 -14.372379 23.353540 41.477143 0.000006 12.389881 0.000031 -1.865157 5.540970 7.540232 4.487129 6.514297 -4.474637 8.626319 -33.972166 -3.460134 -3.952945 -19.045219 -17.504571 0.000000 0.000000 -0.000002 3.400360 10.942744 -0.810560 0.712608 -2.477761 32.085766 0.248445 -1.502237 18.779610 0.000004 -0.000004 0.000001 -0.014906 -1.400268 3.559358 0.922281 -2.784015 36.651362 0.072136 -0.817418 10.087062 0.000001 0.000000 -0.000004 1.582434 -10.874313 10.351148 1.139965 -3.054545 40.923775 0.557598 -2.211573 28.298503 -0.000002 -0.000002 -0.000000 0.772704 -18.240177 18.353787 1.254856 -3.182056 43.035697 0.218218 -1.410275 17.590520 0.000000 0.000003 0.000003 -4.531401 -5.787168 20.904424 86.691083 2.492620 10.917844 2.168372 3.246543 6.427979 -36.819019 8.500971 -12.553194 -0.000002 0.000001 -0.000000 -17.465275 -0.155397 14.879851 37.618042 -8.080846 10.320611 -4.805891 -10.594639 1.286342 -5.476371 -0.000002 -0.000003 -0.000001 -0.000000 0.000000 
1.602205 78.057907 156.695038 -14.459116 15.917597 -18.674471 18.307984 -2.384416 15.771381 16.456374 -0.198158 3.660759 25.905128 0.501765 3.640648 -18.562644 -0.182042 1.348843 -22.108465 -0.271004 -1.402033 0.000000 -0.000000 0.000000 4.115294 -6.982767 -12.559593 -14.220639 -40.245274 -45.001302 0.000002 -26.196321 -0.000015 -37.328579 -16.363636 11.090234 5.392178 -4.609210 5.048534 8.540441 32.108029 2.892666 -5.496670 12.978780 16.451796 -0.000000 -0.000000 0.000002 1.010222 18.751823 -18.764589 1.574000 3.996425 -42.980909 0.273505 1.770780 -17.558926 -0.000000 0.000002 -0.000005 1.713838 11.216068 -10.886565 1.429779 3.836191 -40.869468 0.699063 2.777157 -28.252686 -0.000002 -0.000000 0.000005 -0.006184 1.625241 -4.274662 1.156564 3.496282 -36.598800 0.090410 1.026335 -10.068126 -0.000001 -0.000001 0.000008 3.220029 -10.849309 -0.186670 0.893488 3.111521 -32.036398 0.311388 1.886272 -18.746175 -0.000002 -0.000002 -0.000001 4.402499 5.097946 21.827283 -16.314049 25.530793 41.505198 0.000004 13.352849 -0.000048 -3.034391 6.719414 3.959634 4.487132 6.514301 -4.474636 8.626327 -33.972159 -3.460132 -3.952945 -19.045223 -17.504569 0.000006 -0.000001 0.000001 3.400358 10.942743 -0.810557 0.712607 -2.477762 32.085770 0.248437 -1.502235 18.779612 0.000004 -0.000001 -0.000002 -0.014905 -1.400266 3.559351 0.922280 -2.784018 36.651359 0.072136 -0.817419 10.087062 0.000002 0.000000 -0.000008 1.582434 -10.874309 10.351151 1.139969 -3.054546 40.923779 0.557596 -2.211570 28.298505 0.000002 -0.000002 -0.000003 0.772706 -18.240176 18.353792 1.254862 -3.182057 43.035693 0.218220 -1.410275 17.590522 -0.000000 0.000001 -0.000001 -14.319352 -6.707691 12.499334 87.929321 1.936325 11.132482 2.839317 1.870855 7.152267 -39.581704 4.285116 -6.500473 -0.000001 0.000000 -0.000000 -13.378671 0.304885 15.776193 37.539577 -8.310039 9.391130 -9.802833 -9.917724 0.552731 -5.603931 0.000000 0.000003 -0.000001 0.000000 -0.000000 
1.501066 80.366798 161.538727 -13.394867 14.774867 -17.189028 18.059044 -1.420141 14.231057 16.243332 0.001975 3.340123 25.698244 0.641387 3.284991 -18.485806 -0.255359 1.139017 -22.654392 -1.616405 -1.221713 0.000000 0.000000 0.000000 3.973037 -7.441988 -12.025457 -15.341247 -38.153823 -47.592495 0.000001 -21.283836 0.000005 -36.228532 -15.396148 8.977226 5.392177 -4.609209 5.048536 8.540444 32.108029 2.892668 -5.496669 12.978780 16.451798 0.000001 -0.000000 0.000002 1.010226 18.751825 -18.764586 1.574002 3.996424 -42.980909 0.273507 1.770780 -17.558924 0.000001 -0.000000 -0.000001 1.713837 11.216068 -10.886563 1.429779 3.836191 -40.869468 0.699064 2.777159 -28.252685 -0.000001 -0.000001 -0.000002 -0.006182 1.625241 -4.274664 1.156565 3.496281 -36.598790 0.090410 1.026339 -10.068128 0.000001 -0.000000 0.000004 3.220033 -10.849307 -0.186674 0.893488 3.111517 -32.036398 0.311391 1.886275 -18.746171 -0.000001 0.000003 0.000002 4.123247 5.646879 20.502155 -19.278093 26.142973 42.112167 0.000016 14.238988 -0.000013 -5.142536 8.298405 1.453182 4.487124 6.514297 -4.474637 8.626321 -33.972169 -3.460132 -3.952945 -19.045216 -17.504564 -0.000003 0.000000 0.000001 3.400356 10.942743 -0.810560 0.712604 -2.477762 32.085766 0.248440 -1.502235 18.779609 0.000001 -0.000002 0.000005 -0.014906 -1.400266 3.559352 0.922284 -2.784013 36.651362 0.072134 -0.817420 10.087061 0.000004 -0.000001 -0.000001 1.582435 -10.874309 10.351150 1.139969 -3.054545 40.923779 0.557597 -2.211570 28.298503 0.000001 0.000003 -0.000005 0.772705 -18.240177 18.353787 1.254855 -3.182050 43.035693 0.218217 -1.410274 17.590527 -0.000000 -0.000001 -0.000001 -22.862457 -6.669851 7.379242 84.002468 1.053575 10.085119 3.835357 0.812500 6.508299 -34.415684 1.551984 -2.833138 0.000002 0.000000 -0.000000 -8.278244 0.675191 15.770543 34.421377 -8.466351 8.232173 -12.885483 -8.402516 -0.176126 -5.663989 -0.000001 -0.000001 -0.000000 0.000000 0.000000 
1.801060 83.090454 166.325790 -12.285536 12.882139 -15.523705 18.017448 -0.315888 12.215341 15.899154 0.204477 2.919535 25.360523 0.766800 2.830313 -18.284427 -0.312811 0.867151 -23.083628 -3.048739 -1.072280 0.000000 0.000000 0.000000 3.753780 -7.582622 -11.403169 -15.576952 -35.326490 -49.634042 -0.000010 -18.405968 -0.000004 -34.428730 -14.058373 7.132584 5.392176 -4.609213 5.048537 8.540441 32.108026 2.892670 -5.496673 12.978778 16.451793 -0.000000 0.000001 -0.000004 1.010224 18.751822 -18.764589 1.574001 3.996427 -42.980912 0.273506 1.770784 -17.558926 0.000000 0.000000 -0.000002 1.713838 11.216066 -10.886564 1.429780 3.836191 -40.869465 0.699062 2.777158 -28.252686 0.000000 0.000002 0.000007 -0.006182 1.625241 -4.274661 1.156564 3.496280 -36.598800 0.090410 1.026339 -10.068126 0.000001 -0.000000 0.000006 3.220033 -10.849309 -0.186675 0.893490 3.111518 -32.036398 0.311391 1.886273 -18.746173 -0.000003 0.000000 -0.000002 3.600498 6.941602 18.766851 -22.505072 26.224183 43.093654 -0.000001 14.832181 0.000012 -7.915383 9.566774 0.738977 4.487133 6.514301 -4.474635 8.626318 -33.972169 -3.460127 -3.952940 -19.045216 -17.504566 0.000005 -0.000002 0.000001 3.400355 10.942739 -0.810557 0.712600 -2.477762 32.085770 0.248443 -1.502234 18.779607 -0.000001 -0.000003 -0.000001 -0.014906 -1.400266 3.559358 0.922280 -2.784015 36.651362 0.072136 -0.817418 10.087068 0.000002 -0.000002 -0.000007 1.582432 -10.874312 10.351150 1.139968 -3.054544 40.923775 0.557597 -2.211570 28.298507 -0.000000 -0.000003 -0.000004 0.772703 -18.240177 18.353794 1.254863 -3.182054 43.035693 0.218219 -1.410274 17.590522 -0.000000 -0.000001 -0.000001 -28.692016 -6.742020 5.883749 76.262190 1.013308 8.363462 3.904859 -0.032992 2.847156 -25.888169 0.320229 -0.777035 0.000000 0.000000 -0.000000 -2.582481 0.856593 14.644467 29.237461 -8.428576 7.005166 -14.323953 -5.856999 -0.482105 -5.684043 0.000002 0.000001 -0.000000 -0.000000 -0.000000 
